HIERARCHY
ROOT root
{
	OFFSET 0.000000 0.000000 0.000000
	CHANNELS 6 Xposition Yposition Zposition Zrotation Yrotation Xrotation
	JOINT lhip
	{
		OFFSET 0.058581 -0.082280 -0.017664
		CHANNELS 3 Zrotation Yrotation Xrotation
		JOINT lknee
		{
			OFFSET 0.043451 -0.386469 0.008037
			CHANNELS 3 Zrotation Yrotation Xrotation
			JOINT lankle
			{
				OFFSET -0.014790 -0.426874 -0.037428
				CHANNELS 3 Zrotation Yrotation Xrotation
				JOINT ltoe
				{
					OFFSET 0.041054 -0.060286 0.122042
					CHANNELS 3 Zrotation Yrotation Xrotation
					End Site
					{
						OFFSET 0.000000 0.000000 0.000000
					}
				}
			}
		}
	}
	JOINT rhip
	{
		OFFSET -0.060310 -0.090513 -0.013543
		CHANNELS 3 Zrotation Yrotation Xrotation
		JOINT rknee
		{
			OFFSET -0.043257 -0.383688 -0.004843
			CHANNELS 3 Zrotation Yrotation Xrotation
			JOINT rankle
			{
				OFFSET 0.019056 -0.420046 -0.034562
				CHANNELS 3 Zrotation Yrotation Xrotation
				JOINT rtoe
				{
					OFFSET -0.034840 -0.062106 0.130323
					CHANNELS 3 Zrotation Yrotation Xrotation
					End Site
					{
						OFFSET 0.000000 0.000000 0.000000
					}
				}
			}
		}
	}
	JOINT lowerback
	{
		OFFSET 0.004439 0.124404 -0.038385
		CHANNELS 3 Zrotation Yrotation Xrotation
		JOINT upperback
		{
			OFFSET 0.004488 0.137956 0.026820
			CHANNELS 3 Zrotation Yrotation Xrotation
			JOINT chest
			{
				OFFSET -0.002265 0.056032 0.002855
				CHANNELS 3 Zrotation Yrotation Xrotation
				JOINT lowerneck
				{
					OFFSET -0.013390 0.211636 -0.033468
					CHANNELS 3 Zrotation Yrotation Xrotation
					JOINT upperneck
					{
						OFFSET 0.010113 0.088937 0.050410
						CHANNELS 3 Zrotation Yrotation Xrotation
						End Site
						{
							OFFSET 0.000000 0.000000 0.000000
						}
					}
				}
				JOINT lclavicle
				{
					OFFSET 0.071702 0.114000 -0.018898
					CHANNELS 3 Zrotation Yrotation Xrotation
					JOINT lshoulder
					{
						OFFSET 0.122921 0.045205 -0.019046
						CHANNELS 3 Zrotation Yrotation Xrotation
						JOINT lelbow
						{
							OFFSET 0.255332 -0.015649 -0.022946
							CHANNELS 3 Zrotation Yrotation Xrotation
							JOINT lwrist
							{
								OFFSET 0.265709 0.012698 -0.007375
								CHANNELS 3 Zrotation Yrotation Xrotation
								End Site
								{
									OFFSET 0.000000 0.000000 0.000000
								}
							}
						}
					}
				}
				JOINT rclavicle
				{
					OFFSET -0.082954 0.112472 -0.023707
					CHANNELS 3 Zrotation Yrotation Xrotation
					JOINT rshoulder
					{
						OFFSET -0.113228 0.046853 -0.008472
						CHANNELS 3 Zrotation Yrotation Xrotation
						JOINT relbow
						{
							OFFSET -0.260127 -0.014369 -0.031269
							CHANNELS 3 Zrotation Yrotation Xrotation
							JOINT rwrist
							{
								OFFSET -0.269108 0.006794 -0.006027
								CHANNELS 3 Zrotation Yrotation Xrotation
								End Site
								{
									OFFSET 0.000000 0.000000 0.000000
								}
							}
						}
					}
				}
			}
		}
	}
}
MOTION
Frames: 5
Frame Time: 0.033333
0.178954 0.466146 1.294563 -4.878451 -2.264436 99.998678 8.962624 -10.145099 -64.845452 1.404234 28.150368 70.199571 8.706399 15.359632 -23.494311 0.000000 -0.000000 0.000000 -2.530279 -5.401551 -10.212461 5.707287 -0.072087 16.733746 14.892355 -2.229702 13.136427 0.000000 -0.000000 0.000000 -6.442812 11.647702 23.491645 0.593730 -5.697130 -8.647038 -0.688167 0.195738 3.293436 1.533330 -2.291386 2.760186 7.233342 -1.444024 17.450330 -26.054542 -5.324775 1.751640 -43.803632 -13.176456 7.780079 23.140360 -48.441216 -10.714958 6.966531 -10.716974 -2.839260 21.263686 4.574419 1.281971 29.772150 13.910972 5.634005 -24.724892 55.198601 -6.924590 4.373951 3.227987 -9.946075 
0.180090 0.450855 1.314995 -4.801873 -1.457627 101.139682 8.255874 -9.693391 -61.474839 -0.133679 26.999559 64.650360 8.868466 14.659262 -22.663555 0.000000 -0.000000 0.000000 -2.884282 -5.971140 -12.696516 5.693120 -2.747404 18.189155 18.093859 -3.504155 22.998028 0.000000 -0.000000 0.000000 -6.781364 11.112215 23.035004 0.900719 -5.401320 -8.378234 -0.136776 0.005447 2.781087 1.228432 -2.851141 4.911546 8.103421 -0.124086 15.725488 -26.549019 -6.016063 2.581943 -42.991790 -14.205282 7.430090 24.606996 -48.245581 -13.657515 7.427477 -11.219001 -1.761354 21.588866 4.371370 1.876998 29.466054 12.759782 5.748121 -24.896913 55.463352 -7.852499 4.334277 3.415214 -8.837072 
0.181522 0.435361 1.334267 -4.658172 -0.491863 101.716401 7.751748 -9.072645 -57.595307 -1.834593 25.874805 59.287087 9.163630 14.138594 -22.080456 0.000000 -0.000000 0.000000 -3.244960 -5.692477 -16.260358 5.709545 -6.024217 23.610442 18.773685 -5.569061 28.031188 0.000000 -0.000000 0.000000 -6.712833 10.021568 22.825728 1.205541 -4.853350 -7.917788 0.332323 -0.276937 2.155206 0.901479 -3.216580 6.913283 8.358522 1.584117 14.514305 -27.090089 -6.488119 3.242478 -42.310219 -14.804823 6.768021 25.844167 -47.992887 -16.628257 7.519585 -11.304888 -0.885667 21.663683 4.238065 2.437354 29.066262 11.508360 6.176297 -24.235033 55.586984 -7.608308 4.849599 3.747644 -6.722041 
0.182966 0.419510 1.350654 -4.376837 0.471176 101.571198 6.959296 -8.221892 -53.201256 -3.624114 24.173398 54.401692 9.550438 13.990964 -21.731971 0.000000 -0.000000 0.000000 -3.798091 -4.994453 -20.575052 5.686120 -9.320207 33.483178 16.954595 -7.557031 28.556145 0.000000 -0.000000 0.000000 -6.423643 8.382309 23.071655 1.567215 -4.076206 -7.589605 0.632036 -0.666381 1.889521 0.904673 -3.294479 8.085036 7.893711 3.044962 14.176669 -27.481255 -6.705929 3.500615 -41.783526 -15.153457 6.246863 26.889175 -47.648264 -18.796615 7.466846 -11.230228 -0.408554 21.701677 4.111788 2.555237 28.595946 10.323180 6.834604 -22.756846 55.401750 -6.320930 5.437921 4.066770 -4.488240 
0.184061 0.403124 1.363539 -3.987317 1.369126 100.745403 6.116070 -7.203189 -48.437079 -5.417022 22.070415 50.115884 9.894913 14.016701 -21.431302 0.000000 -0.000000 0.000000 -4.628962 -4.274139 -24.929497 5.448780 -12.576149 46.010814 15.033004 -8.479458 28.507024 0.000000 -0.000000 0.000000 -6.052970 6.494399 23.871138 1.981874 -3.326174 -7.623471 0.795678 -1.027802 2.071449 1.201904 -3.017906 8.585734 7.093524 3.993920 14.437940 -27.590418 -6.779832 3.272491 -41.476776 -15.212001 6.127651 27.762968 -47.261423 -20.237201 7.334966 -11.073420 0.107651 21.740175 3.847121 2.148449 28.248418 9.232040 7.574215 -20.843733 54.764300 -4.680957 5.679874 4.177973 -2.606421 
